<svg width="24" height="25" viewBox="0 0 24 25" fill="none" xmlns="http://www.w3.org/2000/svg">
<path d="M19.2 19.8758C19.8365 19.8758 20.447 20.1286 20.8971 20.5787C21.3471 21.0288 21.6 21.6393 21.6 22.2758C21.6 22.9123 21.3471 23.5228 20.8971 23.9728C20.447 24.4229 19.8365 24.6758 19.2 24.6758C18.5635 24.6758 17.953 24.4229 17.5029 23.9728C17.0529 23.5228 16.8 22.9123 16.8 22.2758C16.8 20.9438 17.868 19.8758 19.2 19.8758ZM0 0.675781H3.924L5.052 3.07578H22.8C23.1183 3.07578 23.4235 3.20221 23.6485 3.42725C23.8736 3.6523 24 3.95752 24 4.27578C24 4.47978 23.94 4.68378 23.856 4.87578L19.56 12.6398C19.152 13.3718 18.36 13.8758 17.46 13.8758H8.52L7.44 15.8318L7.404 15.9758C7.404 16.0553 7.43561 16.1317 7.49187 16.1879C7.54813 16.2442 7.62444 16.2758 7.704 16.2758H21.6V18.6758H7.2C6.56348 18.6758 5.95303 18.4229 5.50294 17.9728C5.05286 17.5228 4.8 16.9123 4.8 16.2758C4.8 15.8558 4.908 15.4598 5.088 15.1238L6.72 12.1838L2.4 3.07578H0V0.675781ZM7.2 19.8758C7.83652 19.8758 8.44697 20.1286 8.89706 20.5787C9.34714 21.0288 9.6 21.6393 9.6 22.2758C9.6 22.9123 9.34714 23.5228 8.89706 23.9728C8.44697 24.4229 7.83652 24.6758 7.2 24.6758C6.56348 24.6758 5.95303 24.4229 5.50294 23.9728C5.05286 23.5228 4.8 22.9123 4.8 22.2758C4.8 20.9438 5.868 19.8758 7.2 19.8758ZM18 11.4758L21.336 5.47578H6.168L9 11.4758H18Z" fill="white"/>
</svg>
