<svg width="44" height="44" viewBox="0 0 44 44" fill="none" xmlns="http://www.w3.org/2000/svg">
<g clip-path="url(#clip0_52_174)">
<path d="M22 26.125C23.094 26.125 24.1432 25.6904 24.9168 24.9168C25.6904 24.1432 26.125 23.094 26.125 22C26.125 20.906 25.6904 19.8568 24.9168 19.0832C24.1432 18.3096 23.094 17.875 22 17.875C20.906 17.875 19.8568 18.3096 19.0832 19.0832C18.3096 19.8568 17.875 20.906 17.875 22C17.875 23.094 18.3096 24.1432 19.0832 24.9168C19.8568 25.6904 20.906 26.125 22 26.125ZM8.25 22C8.25 18.3533 9.69866 14.8559 12.2773 12.2773C14.8559 9.69866 18.3533 8.25 22 8.25C25.6467 8.25 29.1441 9.69866 31.7227 12.2773C34.3013 14.8559 35.75 18.3533 35.75 22C35.75 25.6467 34.3013 29.1441 31.7227 31.7227C29.1441 34.3013 25.6467 35.75 22 35.75C18.3533 35.75 14.8559 34.3013 12.2773 31.7227C9.69866 29.1441 8.25 25.6467 8.25 22ZM22 11C19.0826 11 16.2847 12.1589 14.2218 14.2218C12.1589 16.2847 11 19.0826 11 22C11 24.9174 12.1589 27.7153 14.2218 29.7782C16.2847 31.8411 19.0826 33 22 33C24.9174 33 27.7153 31.8411 29.7782 29.7782C31.8411 27.7153 33 24.9174 33 22C33 19.0826 31.8411 16.2847 29.7782 14.2218C27.7153 12.1589 24.9174 11 22 11ZM0 22C0 16.1652 2.31785 10.5695 6.44365 6.44365C10.5695 2.31785 16.1652 0 22 0C27.8348 0 33.4305 2.31785 37.5564 6.44365C41.6822 10.5695 44 16.1652 44 22C44 27.8348 41.6822 33.4305 37.5564 37.5564C33.4305 41.6822 27.8348 44 22 44C16.1652 44 10.5695 41.6822 6.44365 37.5564C2.31785 33.4305 0 27.8348 0 22ZM22 2.75C19.4721 2.75 16.9689 3.24792 14.6333 4.21532C12.2978 5.18272 10.1757 6.60067 8.38819 8.38819C6.60067 10.1757 5.18272 12.2978 4.21532 14.6333C3.24792 16.9689 2.75 19.4721 2.75 22C2.75 24.5279 3.24792 27.0311 4.21532 29.3667C5.18272 31.7022 6.60067 33.8243 8.38819 35.6118C10.1757 37.3993 12.2978 38.8173 14.6333 39.7847C16.9689 40.7521 19.4721 41.25 22 41.25C27.1054 41.25 32.0017 39.2219 35.6118 35.6118C39.2219 32.0017 41.25 27.1054 41.25 22C41.25 16.8946 39.2219 11.9983 35.6118 8.38819C32.0017 4.77812 27.1054 2.75 22 2.75Z" fill="#5E5454"/>
</g>
<defs>
<clipPath id="clip0_52_174">
<rect width="44" height="44" fill="white"/>
</clipPath>
</defs>
</svg>
