<svg width="30" height="30" viewBox="0 0 30 30" fill="none" xmlns="http://www.w3.org/2000/svg">
<g clip-path="url(#clip0_141_160)">
<path fill-rule="evenodd" clip-rule="evenodd" d="M29.9351 15.0896C29.9351 6.84186 23.2476 0.154297 14.9998 0.154297C6.75202 0.154297 0.0644531 6.84186 0.0644531 15.0896C0.0644531 22.544 5.52519 28.7228 12.6662 29.8443V19.4082H8.87297V15.0896H12.6662V11.7992C12.6662 8.05669 14.8965 5.98775 18.3076 5.98775C19.9418 5.98775 21.6514 6.27979 21.6514 6.27979V9.95562H19.7671C17.9129 9.95562 17.3328 11.1064 17.3328 12.2893V15.0896H21.4747L20.8132 19.4082H17.3334V29.8456C24.4744 28.7248 29.9351 22.546 29.9351 15.0896Z" fill="#031A08"/>
</g>
<defs>
<clipPath id="clip0_141_160">
<rect width="30" height="30" fill="white"/>
</clipPath>
</defs>
</svg>
