<svg width="47" height="47" viewBox="0 0 47 47" fill="none" xmlns="http://www.w3.org/2000/svg">
<g clip-path="url(#clip0_46_340)">
<g clip-path="url(#clip1_46_340)">
<path d="M23.5 0C10.5213 0 0 10.5213 0 23.5C0 36.4787 10.5213 47 23.5 47C36.4787 47 47 36.4787 47 23.5C47 10.5213 36.4786 0 23.5 0ZM23.5 5.1062C33.6586 5.1062 41.8909 13.3439 41.8909 23.5C41.8909 33.6561 33.6586 41.8909 23.5 41.8909C13.3413 41.8909 5.10906 33.6561 5.10906 23.5C5.1091 13.3439 13.3413 5.1062 23.5 5.1062ZM32.5047 12.3409L18.8843 25.9642L14.4666 21.5464L10.1321 25.8781L14.5498 30.2958L18.913 34.6591L23.2447 30.3245L36.8679 16.7042L32.5047 12.3409Z" fill="#5E5454"/>
</g>
</g>
<defs>
<clipPath id="clip0_46_340">
<rect width="47" height="47" fill="white"/>
</clipPath>
<clipPath id="clip1_46_340">
<rect width="47" height="47" fill="white"/>
</clipPath>
</defs>
</svg>
