<svg width="67" height="47" viewBox="0 0 67 47" fill="none" xmlns="http://www.w3.org/2000/svg">
<g clip-path="url(#clip0_46_334)">
<path d="M0 0.652344V4.84877H39.7812V36.322H26.8921C25.9583 32.7152 22.7214 30.0273 18.8438 30.0273C14.9661 30.0273 11.7292 32.7152 10.7954 36.322H8.375V25.8309H4.1875V40.5184H10.7954C11.7292 44.1252 14.9661 46.8131 18.8438 46.8131C22.7214 46.8131 25.9583 44.1252 26.8921 40.5184H44.2954C45.2292 44.1252 48.4661 46.8131 52.3438 46.8131C56.2214 46.8131 59.4583 44.1252 60.3921 40.5184H67V23.4054L66.8681 23.076L62.6806 10.4867L62.2262 9.0452H43.9688V0.652344H0ZM2.09375 9.0452V13.2416H20.9375V9.0452H2.09375ZM43.9688 13.2416H59.2133L62.8125 23.995V36.322H60.3921C59.4583 32.7152 56.2214 30.0273 52.3438 30.0273C48.4661 30.0273 45.2292 32.7152 44.2954 36.322H43.9688V13.2416ZM4.1875 17.4381V21.6345H16.75V17.4381H4.1875ZM18.8438 34.2238C21.1825 34.2238 23.0312 36.0765 23.0312 38.4202C23.0312 40.7639 21.1825 42.6166 18.8438 42.6166C16.505 42.6166 14.6562 40.7639 14.6562 38.4202C14.6562 36.0765 16.505 34.2238 18.8438 34.2238ZM52.3438 34.2238C54.6825 34.2238 56.5312 36.0765 56.5312 38.4202C56.5312 40.7639 54.6825 42.6166 52.3438 42.6166C50.005 42.6166 48.1562 40.7639 48.1562 38.4202C48.1562 36.0765 50.005 34.2238 52.3438 34.2238Z" fill="#5E5454"/>
</g>
<defs>
<clipPath id="clip0_46_334">
<rect width="67" height="47" fill="white"/>
</clipPath>
</defs>
</svg>
