<svg width="48" height="48" viewBox="0 0 48 48" fill="none" xmlns="http://www.w3.org/2000/svg">
<path d="M14.3999 2.40039C15.5999 2.40039 20.3999 13.2004 20.3999 14.4004C20.3999 16.8004 16.7999 19.2004 15.5999 21.6004C14.3999 24.0004 16.7999 26.4004 19.1999 28.8004C20.1359 29.7364 23.9999 33.6004 26.3999 32.4004C28.7999 31.2004 31.1999 27.6004 33.5999 27.6004C34.7999 27.6004 45.5999 32.4004 45.5999 33.6004C45.5999 38.4004 41.9999 42.0004 38.3999 43.2004C34.7999 44.4004 32.3999 44.4004 27.5999 43.2004C22.7999 42.0004 19.1999 40.8004 13.1999 34.8004C7.1999 28.8004 5.9999 25.2004 4.7999 20.4004C3.5999 15.6004 3.5999 13.2004 4.7999 9.60039C5.9999 6.00039 9.5999 2.40039 14.3999 2.40039Z" stroke="#5E5454" stroke-width="4.8" stroke-linecap="round" stroke-linejoin="round"/>
</svg>
