<svg width="84" height="31" viewBox="0 0 84 31" fill="none" xmlns="http://www.w3.org/2000/svg">
<path d="M5.768 20.488L23 20.488V22.816L5.768 22.816L5.768 20.488ZM7.832 17.9843H5.768L5.768 3.99231H7.832L7.832 9.82431L23 9.82431L23 12.1523L7.832 12.1523L7.832 17.9843Z" fill="#246B0F"/>
<path d="M31.7688 8.72L27.7848 23H25.3368L20.8488 5.768H23.3688L26.5848 19.784H26.6328L30.4968 5.768H33.0408L36.9048 19.784H36.9528L40.1688 5.768H42.7368L38.2008 23H35.7528L31.8168 8.72H31.7688ZM43.2423 16.712C43.2423 13.472 45.0663 10.088 49.0743 10.088C53.0823 10.088 54.9063 13.472 54.9063 16.712C54.9063 19.952 53.0823 23.336 49.0743 23.336C45.0663 23.336 43.2423 19.952 43.2423 16.712ZM45.4263 16.712C45.4263 18.392 46.0503 21.512 49.0743 21.512C52.0983 21.512 52.7223 18.392 52.7223 16.712C52.7223 15.032 52.0983 11.912 49.0743 11.912C46.0503 11.912 45.4263 15.032 45.4263 16.712ZM59.6983 15.704V23H57.5863V10.448H59.5783V12.536H59.6263C60.4663 11.072 61.5703 10.088 63.1543 10.088C63.4183 10.088 63.5383 10.112 63.7063 10.16V12.344H62.9143C60.9463 12.344 59.6983 13.88 59.6983 15.704ZM67.802 5.768V23H65.69V5.768H67.802ZM81.3783 5.768V23H79.3863V21.272H79.3383C78.4263 22.976 76.9863 23.36 75.7623 23.36C71.4903 23.36 70.2423 19.352 70.2423 16.352C70.2423 12.824 72.1383 10.088 75.4743 10.088C77.7543 10.088 78.7143 11.504 79.2183 12.224H79.2663V5.768H81.3783ZM72.4263 16.688C72.4263 19.448 73.5063 21.536 75.8103 21.536C77.1543 21.536 79.2423 20.648 79.2423 17.312C79.2423 15.272 78.9063 11.984 75.8583 11.984C72.5943 11.984 72.4263 15.08 72.4263 16.688Z" fill="#246B0F"/>
</svg>
