<svg width="48" height="46" viewBox="0 0 48 46" fill="none" xmlns="http://www.w3.org/2000/svg">
<path d="M21.8179 32.6429L26.1815 36.9286C26.6113 37.3507 27.1215 37.6855 27.683 37.914C28.2446 38.1424 28.8464 38.26 29.4542 38.26C30.062 38.26 30.6639 38.1424 31.2254 37.914C31.787 37.6855 32.2972 37.3507 32.727 36.9286C33.1567 36.5065 33.4977 36.0054 33.7303 35.4538C33.9629 34.9023 34.0826 34.3112 34.0826 33.7143C34.0826 33.1173 33.9629 32.5262 33.7303 31.9747C33.4977 31.4232 33.1567 30.9221 32.727 30.5" stroke="#5E5454" stroke-width="3" stroke-linecap="round" stroke-linejoin="round"/>
<path d="M28.3636 26.2141L33.8181 31.5713C34.6861 32.4237 35.8634 32.9027 37.0909 32.9027C38.3184 32.9027 39.4956 32.4237 40.3636 31.5713C41.2316 30.7188 41.7192 29.5626 41.7192 28.357C41.7192 27.1514 41.2316 25.9952 40.3636 25.1427L31.8981 16.8284C30.6709 15.6245 29.0072 14.9483 27.2727 14.9483C25.5381 14.9483 23.8745 15.6245 22.6472 16.8284L20.7272 18.7141C19.8593 19.5666 18.682 20.0455 17.4545 20.0455C16.227 20.0455 15.0498 19.5666 14.1818 18.7141C13.3138 17.8616 12.8262 16.7054 12.8262 15.4998C12.8262 14.2942 13.3138 13.138 14.1818 12.2855L20.3127 6.26411C22.303 4.31442 24.8986 3.07243 27.6886 2.73476C30.4786 2.3971 33.3036 2.98303 35.7163 4.39982L36.7418 4.99982C37.6708 5.55051 38.7753 5.7415 39.84 5.53554L43.6363 4.78554" stroke="#5E5454" stroke-width="3" stroke-linecap="round" stroke-linejoin="round"/>
<path d="M43.6362 2.64258L45.818 26.214H41.4544M4.36346 2.64258L2.18164 26.214L16.3635 40.1426C17.2314 40.9951 18.4087 41.474 19.6362 41.474C20.8637 41.474 22.0409 40.9951 22.9089 40.1426C23.7769 39.2901 24.2645 38.1339 24.2645 36.9283C24.2645 35.7227 23.7769 34.5665 22.9089 33.714M4.36346 4.78544H21.818" stroke="#5E5454" stroke-width="3" stroke-linecap="round" stroke-linejoin="round"/>
</svg>
