<svg width="248" height="80" viewBox="0 0 248 80" fill="none" xmlns="http://www.w3.org/2000/svg">
<path d="M27.0511 21.9091C27.0511 24.8239 26.4844 27.2827 25.3509 29.2855C24.2173 31.2798 22.6875 32.7926 20.7614 33.8239C18.8352 34.8466 16.6875 35.358 14.3182 35.358C11.9318 35.358 9.77557 34.8423 7.84943 33.8111C5.93182 32.7713 4.40625 31.2543 3.27273 29.2599C2.14773 27.2571 1.58523 24.8068 1.58523 21.9091C1.58523 18.9943 2.14773 16.5398 3.27273 14.5455C4.40625 12.5426 5.93182 11.0298 7.84943 10.0071C9.77557 8.97585 11.9318 8.46023 14.3182 8.46023C16.6875 8.46023 18.8352 8.97585 20.7614 10.0071C22.6875 11.0298 24.2173 12.5426 25.3509 14.5455C26.4844 16.5398 27.0511 18.9943 27.0511 21.9091ZM19.7386 21.9091C19.7386 20.3409 19.5298 19.0199 19.1122 17.946C18.7031 16.8636 18.0938 16.0455 17.2841 15.4915C16.483 14.929 15.4943 14.6477 14.3182 14.6477C13.142 14.6477 12.1491 14.929 11.3395 15.4915C10.5384 16.0455 9.92898 16.8636 9.51136 17.946C9.10227 19.0199 8.89773 20.3409 8.89773 21.9091C8.89773 23.4773 9.10227 24.8026 9.51136 25.8849C9.92898 26.9588 10.5384 27.777 11.3395 28.3395C12.1491 28.8935 13.142 29.1705 14.3182 29.1705C15.4943 29.1705 16.483 28.8935 17.2841 28.3395C18.0938 27.777 18.7031 26.9588 19.1122 25.8849C19.5298 24.8026 19.7386 23.4773 19.7386 21.9091ZM43.1751 26.4091V15.3636H50.2319V35H43.533V31.267H43.3285C42.9023 32.5199 42.1566 33.5 41.0913 34.2074C40.0259 34.9062 38.7603 35.2557 37.2944 35.2557C35.9222 35.2557 34.7205 34.9403 33.6893 34.3097C32.6665 33.679 31.8697 32.8097 31.2987 31.7017C30.7362 30.5937 30.4506 29.3239 30.4421 27.892V15.3636H37.4989V26.4091C37.5075 27.3807 37.7546 28.1435 38.2404 28.6974C38.7347 29.2514 39.4251 29.5284 40.3114 29.5284C40.8995 29.5284 41.4066 29.4048 41.8327 29.1577C42.2674 28.902 42.5998 28.544 42.8299 28.0838C43.0685 27.6151 43.1836 27.0568 43.1751 26.4091ZM53.821 35V15.3636H60.6733V19.0966H60.8778C61.2358 17.7159 61.8026 16.706 62.5781 16.0668C63.3622 15.4276 64.2784 15.108 65.3267 15.108C65.6335 15.108 65.9361 15.1335 66.2344 15.1847C66.5412 15.2273 66.8352 15.2912 67.1165 15.3764V21.3977C66.767 21.2784 66.3366 21.1889 65.8253 21.1293C65.3139 21.0696 64.875 21.0398 64.5085 21.0398C63.8182 21.0398 63.196 21.1974 62.642 21.5128C62.0966 21.8196 61.6662 22.2543 61.3509 22.8168C61.0355 23.3707 60.8778 24.0227 60.8778 24.7727V35H53.821ZM8.84659 52.8182L14.2159 71.2784H14.4205L19.7898 52.8182H27.8182L19.1761 79H9.46023L0.818182 52.8182H8.84659ZM33.5231 79.3068C32.2702 79.3068 31.1623 79.1023 30.1992 78.6932C29.2447 78.2756 28.4947 77.6449 27.9492 76.8011C27.4038 75.9574 27.131 74.8835 27.131 73.5795C27.131 72.5057 27.3143 71.5895 27.6808 70.831C28.0472 70.0639 28.5586 69.4375 29.2148 68.9517C29.8711 68.4659 30.6339 68.0952 31.5032 67.8395C32.381 67.5838 33.3271 67.4176 34.3413 67.3409C35.4407 67.2557 36.3228 67.1534 36.9876 67.0341C37.6609 66.9062 38.1467 66.7315 38.445 66.5099C38.7433 66.2798 38.8924 65.9773 38.8924 65.6023V65.5511C38.8924 65.0398 38.6964 64.6477 38.3043 64.375C37.9123 64.1023 37.4094 63.9659 36.7958 63.9659C36.1225 63.9659 35.5728 64.1151 35.1467 64.4134C34.729 64.7031 34.4776 65.1506 34.3924 65.7557H27.8981C27.9833 64.5625 28.3626 63.4631 29.0359 62.4574C29.7177 61.4432 30.7106 60.6335 32.0146 60.0284C33.3185 59.4148 34.9464 59.108 36.8981 59.108C38.3043 59.108 39.5657 59.2741 40.6822 59.6065C41.7987 59.9304 42.7489 60.3864 43.533 60.9744C44.3171 61.554 44.9137 62.2358 45.3228 63.0199C45.7404 63.7955 45.9492 64.6392 45.9492 65.5511V79H39.3526V76.2386H39.1992C38.8072 76.9716 38.3299 77.5639 37.7674 78.0156C37.2134 78.4673 36.5785 78.7955 35.8626 79C35.1552 79.2045 34.3754 79.3068 33.5231 79.3068ZM35.8242 74.858C36.3612 74.858 36.864 74.7472 37.3327 74.5256C37.81 74.304 38.1978 73.9844 38.4961 73.5668C38.7944 73.1491 38.9435 72.642 38.9435 72.0455V70.4091C38.756 70.4858 38.5558 70.5582 38.3427 70.6264C38.1381 70.6946 37.9165 70.7585 37.6779 70.8182C37.4478 70.8778 37.2006 70.9332 36.9364 70.9844C36.6808 71.0355 36.4123 71.0824 36.131 71.125C35.5856 71.2102 35.1381 71.3509 34.7887 71.5469C34.4478 71.7344 34.1921 71.9688 34.0217 72.25C33.8597 72.5227 33.7788 72.8295 33.7788 73.1705C33.7788 73.7159 33.9705 74.1335 34.354 74.4233C34.7376 74.7131 35.2276 74.858 35.8242 74.858ZM56.3778 52.8182V79H49.321V52.8182H56.3778ZM72.7063 70.4091V59.3636H79.7631V79H73.0643V75.267H72.8597C72.4336 76.5199 71.6879 77.5 70.6225 78.2074C69.5572 78.9062 68.2915 79.2557 66.8256 79.2557C65.4535 79.2557 64.2518 78.9403 63.2205 78.3097C62.1978 77.679 61.4009 76.8097 60.8299 75.7017C60.2674 74.5937 59.9819 73.3239 59.9734 71.892V59.3636H67.0302V70.4091C67.0387 71.3807 67.2859 72.1435 67.7717 72.6974C68.266 73.2514 68.9563 73.5284 69.8427 73.5284C70.4308 73.5284 70.9379 73.4048 71.364 73.1577C71.7987 72.902 72.131 72.544 72.3612 72.0838C72.5998 71.6151 72.7148 71.0568 72.7063 70.4091ZM92.7614 79.358C90.6648 79.358 88.858 78.9574 87.3409 78.1562C85.8324 77.3466 84.669 76.1875 83.8509 74.679C83.0412 73.1619 82.6364 71.3466 82.6364 69.233C82.6364 67.2045 83.0455 65.4318 83.8636 63.9148C84.6818 62.3977 85.8366 61.2173 87.3281 60.3736C88.8196 59.5298 90.5795 59.108 92.608 59.108C94.0909 59.108 95.4332 59.3381 96.6349 59.7983C97.8366 60.2585 98.8636 60.9276 99.7159 61.8054C100.568 62.6747 101.224 63.7315 101.685 64.9759C102.145 66.2202 102.375 67.6222 102.375 69.1818V70.8182H84.8352V66.9318H95.8807C95.8722 66.3693 95.7273 65.875 95.446 65.4489C95.1733 65.0142 94.8026 64.6776 94.3338 64.4389C93.8736 64.1918 93.3494 64.0682 92.7614 64.0682C92.1903 64.0682 91.6662 64.1918 91.1889 64.4389C90.7116 64.6776 90.3281 65.0099 90.0384 65.4361C89.7571 65.8622 89.608 66.3608 89.5909 66.9318V71.125C89.5909 71.7557 89.723 72.3182 89.9872 72.8125C90.2514 73.3068 90.6307 73.6946 91.125 73.9759C91.6193 74.2571 92.2159 74.3977 92.9148 74.3977C93.4006 74.3977 93.8438 74.3295 94.2443 74.1932C94.6534 74.0568 95.0028 73.8608 95.2926 73.6051C95.5824 73.3409 95.7955 73.0256 95.9318 72.6591H102.375C102.153 74.0227 101.629 75.2074 100.803 76.2131C99.9759 77.2102 98.8807 77.9858 97.517 78.5398C96.1619 79.0852 94.5767 79.358 92.7614 79.358ZM123.203 65.7557H116.709C116.675 65.3551 116.534 65.0099 116.287 64.7202C116.04 64.4304 115.721 64.2088 115.328 64.0554C114.945 63.8935 114.519 63.8125 114.05 63.8125C113.445 63.8125 112.925 63.9233 112.49 64.1449C112.056 64.3665 111.843 64.6818 111.851 65.0909C111.843 65.3807 111.966 65.6491 112.222 65.8963C112.486 66.1435 112.993 66.3352 113.743 66.4716L117.732 67.1875C119.743 67.554 121.239 68.1719 122.219 69.0412C123.208 69.902 123.706 71.0568 123.715 72.5057C123.706 73.9034 123.289 75.1179 122.462 76.1491C121.644 77.1719 120.523 77.9645 119.1 78.527C117.685 79.081 116.07 79.358 114.255 79.358C111.255 79.358 108.907 78.7443 107.211 77.517C105.523 76.2898 104.581 74.6705 104.385 72.6591H111.391C111.485 73.2812 111.792 73.7628 112.311 74.1037C112.84 74.4361 113.505 74.6023 114.306 74.6023C114.953 74.6023 115.486 74.4915 115.904 74.2699C116.33 74.0483 116.547 73.733 116.556 73.3239C116.547 72.9489 116.36 72.6506 115.993 72.429C115.635 72.2074 115.073 72.0284 114.306 71.892L110.828 71.2784C108.826 70.929 107.326 70.2642 106.328 69.2841C105.331 68.304 104.837 67.0426 104.846 65.5C104.837 64.1364 105.195 62.9815 105.919 62.0355C106.652 61.081 107.696 60.3565 109.051 59.8622C110.415 59.3594 112.03 59.108 113.897 59.108C116.735 59.108 118.972 59.696 120.608 60.8722C122.253 62.0483 123.118 63.6761 123.203 65.7557Z" fill="#5E5454"/>
<path d="M221.818 43.6429L226.182 47.9286C226.611 48.3507 227.122 48.6855 227.683 48.914C228.245 49.1424 228.846 49.26 229.454 49.26C230.062 49.26 230.664 49.1424 231.225 48.914C231.787 48.6855 232.297 48.3507 232.727 47.9286C233.157 47.5065 233.498 47.0054 233.73 46.4538C233.963 45.9023 234.083 45.3112 234.083 44.7143C234.083 44.1173 233.963 43.5262 233.73 42.9747C233.498 42.4232 233.157 41.9221 232.727 41.5" stroke="#5E5454" stroke-width="3" stroke-linecap="round" stroke-linejoin="round"/>
<path d="M228.364 37.2141L233.818 42.5713C234.686 43.4237 235.863 43.9027 237.091 43.9027C238.318 43.9027 239.496 43.4237 240.364 42.5713C241.232 41.7188 241.719 40.5626 241.719 39.357C241.719 38.1514 241.232 36.9952 240.364 36.1427L231.898 27.8284C230.671 26.6245 229.007 25.9483 227.273 25.9483C225.538 25.9483 223.875 26.6245 222.647 27.8284L220.727 29.7141C219.859 30.5666 218.682 31.0455 217.455 31.0455C216.227 31.0455 215.05 30.5666 214.182 29.7141C213.314 28.8616 212.826 27.7054 212.826 26.4998C212.826 25.2942 213.314 24.138 214.182 23.2855L220.313 17.2641C222.303 15.3144 224.899 14.0724 227.689 13.7348C230.479 13.3971 233.304 13.983 235.716 15.3998L236.742 15.9998C237.671 16.5505 238.775 16.7415 239.84 16.5355L243.636 15.7855" stroke="#5E5454" stroke-width="3" stroke-linecap="round" stroke-linejoin="round"/>
<path d="M243.636 13.6426L245.818 37.214H241.454M204.363 13.6426L202.182 37.214L216.363 51.1426C217.231 51.9951 218.409 52.474 219.636 52.474C220.864 52.474 222.041 51.9951 222.909 51.1426C223.777 50.2901 224.265 49.1339 224.265 47.9283C224.265 46.7227 223.777 45.5665 222.909 44.714M204.363 15.7854H221.818" stroke="#5E5454" stroke-width="3" stroke-linecap="round" stroke-linejoin="round"/>
</svg>
