<svg width="30" height="30" viewBox="0 0 30 30" fill="none" xmlns="http://www.w3.org/2000/svg">
<g clip-path="url(#clip0_141_162)">
<path d="M17.4147 15.3647C17.4057 15.8398 17.2557 16.3016 16.9839 16.6915C16.7121 17.0813 16.3307 17.3817 15.888 17.5546C15.4453 17.7274 14.9612 17.7649 14.4972 17.6623C14.0331 17.5597 13.61 17.3217 13.2813 16.9783C12.9527 16.635 12.7335 16.2018 12.6513 15.7337C12.5692 15.2656 12.6279 14.7836 12.82 14.3489C13.0121 13.9142 13.3289 13.5463 13.7303 13.2919C14.1317 13.0374 14.5997 12.9079 15.0748 12.9197C15.7061 12.9431 16.3035 13.2114 16.7404 13.6679C17.1772 14.1243 17.4191 14.7329 17.4147 15.3647Z" fill="#031A08"/>
<path d="M19.1441 7.84961H11.0067C10.2015 7.84961 9.42927 8.16947 8.85992 8.73882C8.29056 9.30818 7.9707 10.0804 7.9707 10.8856V19.206C7.9707 19.6047 8.04923 19.9994 8.2018 20.3678C8.35437 20.7361 8.578 21.0708 8.85992 21.3527C9.14183 21.6346 9.47651 21.8583 9.84485 22.0108C10.2132 22.1634 10.608 22.2419 11.0067 22.2419H19.1441C19.5428 22.2419 19.9375 22.1634 20.3059 22.0108C20.6742 21.8583 21.0089 21.6346 21.2908 21.3527C21.5727 21.0708 21.7964 20.7361 21.9489 20.3678C22.1015 19.9994 22.18 19.6047 22.18 19.206V10.9006C22.1816 10.5007 22.1043 10.1045 21.9524 9.73462C21.8006 9.36473 21.5773 9.02843 21.2952 8.745C21.0132 8.46158 20.678 8.23659 20.3089 8.08294C19.9397 7.92929 19.5439 7.85 19.1441 7.84961ZM15.0746 19.434C14.2691 19.4521 13.4764 19.2299 12.7977 18.7956C12.119 18.3613 11.5851 17.7346 11.2642 16.9955C10.9432 16.2565 10.8498 15.4385 10.9957 14.6461C11.1417 13.8537 11.5204 13.1227 12.0837 12.5465C12.6469 11.9703 13.369 11.575 14.1579 11.411C14.9468 11.247 15.7666 11.3217 16.5128 11.6257C17.259 11.9297 17.8977 12.4492 18.3474 13.1178C18.7971 13.7864 19.0374 14.5738 19.0376 15.3795C19.0437 15.906 18.9461 16.4285 18.7502 16.9172C18.5543 17.4059 18.2641 17.8513 17.8961 18.2278C17.5281 18.6043 17.0895 18.9046 16.6054 19.1116C16.1212 19.3185 15.6011 19.4281 15.0746 19.434ZM19.4786 11.3266C19.3796 11.3266 19.2816 11.3069 19.1903 11.2685C19.0991 11.2302 19.0164 11.1741 18.9471 11.1034C18.8778 11.0327 18.8233 10.9489 18.7868 10.8569C18.7503 10.7649 18.7326 10.6665 18.7346 10.5676C18.7346 10.3663 18.8145 10.1732 18.9569 10.0309C19.0992 9.88855 19.2923 9.80858 19.4936 9.80858C19.6949 9.80858 19.8879 9.88855 20.0302 10.0309C20.1726 10.1732 20.2525 10.3663 20.2525 10.5676C20.2555 10.6747 20.2353 10.7813 20.1933 10.8799C20.1513 10.9785 20.0885 11.0669 20.0091 11.1389C19.9298 11.211 19.8358 11.2651 19.7336 11.2975C19.6314 11.3299 19.5234 11.3398 19.4171 11.3266H19.4786Z" fill="#031A08"/>
<path d="M15.075 0.000187759C11.0968 -0.0197032 7.27364 1.54155 4.44656 4.3405C1.61949 7.13944 0.0200787 10.9468 0.000187759 14.925C-0.0197032 18.9032 1.54155 22.7264 4.3405 25.5534C7.13944 28.3805 10.9468 29.9799 14.925 29.9998C16.8948 30.0097 18.8473 29.6314 20.6709 28.8867C22.4945 28.142 24.1536 27.0454 25.5534 25.6595C26.9533 24.2736 28.0664 22.6256 28.8293 20.8095C29.5922 18.9934 29.99 17.0448 29.9998 15.075C30.0097 13.1052 29.6314 11.1527 28.8867 9.32911C28.142 7.50548 27.0454 5.84639 25.6595 4.44656C24.2736 3.04674 22.6256 1.93359 20.8095 1.17068C18.9934 0.407771 17.0448 0.0100368 15.075 0.000187759ZM24.1844 19.0529C24.1886 19.7259 24.0591 20.393 23.8036 21.0155C23.548 21.6381 23.1714 22.2037 22.6957 22.6796C22.2199 23.1555 21.6544 23.5323 21.0319 23.788C20.4094 24.0437 19.7424 24.1734 19.0695 24.1694H11.0835C10.4107 24.1732 9.74382 24.0435 9.12146 23.7878C8.4991 23.5321 7.93363 23.1555 7.45779 22.6798C6.98195 22.2041 6.60519 21.6387 6.34931 21.0164C6.09344 20.3941 5.96353 19.7273 5.96711 19.0544V11.067C5.96293 10.3941 6.09237 9.72703 6.34792 9.10449C6.60347 8.48194 6.98005 7.91632 7.45583 7.4404C7.93161 6.96448 8.49713 6.58773 9.1196 6.332C9.74207 6.07626 10.4091 5.94663 11.082 5.95061H19.0695C19.7423 5.94663 20.4092 6.07622 21.0316 6.33186C21.6539 6.5875 22.2194 6.96411 22.6951 7.43987C23.1709 7.91563 23.5475 8.48108 23.8031 9.10345C24.0588 9.72582 24.1884 10.3927 24.1844 11.0655V19.0529Z" fill="#031A08"/>
</g>
<defs>
<clipPath id="clip0_141_162">
<rect width="30" height="30" fill="white"/>
</clipPath>
</defs>
</svg>
