<svg width="44" height="47" viewBox="0 0 44 47" fill="none" xmlns="http://www.w3.org/2000/svg">
<path d="M33.5545 24.5784C32.9297 29.7837 29.5219 31.8636 28.0501 33.3734C26.5761 34.8877 26.8401 35.1892 26.9391 37.41C26.9556 37.6847 26.9157 37.96 26.8218 38.2187C26.728 38.4775 26.5822 38.7142 26.3934 38.9145C26.2046 39.1147 25.9768 39.2741 25.7241 39.3829C25.4713 39.4917 25.199 39.5476 24.9239 39.5471H19.0763C18.8013 39.5466 18.5293 39.4901 18.2769 39.381C18.0245 39.2719 17.797 39.1125 17.6082 38.9125C17.4195 38.7125 17.2734 38.4762 17.1789 38.2178C17.0845 37.9595 17.0436 37.6846 17.0589 37.41C17.0589 35.231 17.2613 34.7248 15.9501 33.3734C14.2781 31.7007 10.3445 29.3391 10.3445 22.844C10.3344 21.2307 10.6586 19.6328 11.2964 18.1511C11.9343 16.6693 12.8721 15.3358 14.0507 14.2347C15.2293 13.1335 16.6231 12.2885 18.1443 11.753C19.6655 11.2175 21.2811 11.0031 22.8893 11.1233C24.4974 11.2434 26.0633 11.6956 27.4881 12.4512C28.9129 13.2069 30.1658 14.2496 31.1678 15.5137C32.1698 16.7778 32.8991 18.2359 33.3099 19.796C33.7207 21.3561 33.804 22.9845 33.5545 24.5784Z" stroke="#5E5454" stroke-width="2.5" stroke-linecap="round" stroke-linejoin="round"/>
<path d="M18.6119 39.4262V42.7541C18.6119 43.6631 19.1179 44.4092 19.7405 44.4092H24.2571C24.8841 44.4092 25.3879 43.6609 25.3879 42.7541V39.4262M20.2839 16.2282C18.9849 16.2287 17.7393 16.7454 16.8209 17.6646C15.9026 18.5837 15.3867 19.8301 15.3867 21.1297M38.1303 23.2888H42.1651M34.0691 10.0567L36.9313 7.19323M36.2691 34.5049L39.1313 37.3661M21.9999 2.32031V5.58433M7.12791 7.19103L9.97031 10.0567M4.92791 37.3661L7.77031 34.5049M5.86951 23.2888H1.83691" stroke="#5E5454" stroke-width="2.5" stroke-linecap="round" stroke-linejoin="round"/>
</svg>
