<svg width="21" height="16" viewBox="0 0 21 16" fill="none" xmlns="http://www.w3.org/2000/svg">
<g clip-path="url(#clip0_52_947)">
<path d="M1.5 5V13C1.5 13.5304 1.71071 14.0391 2.08579 14.4142C2.46086 14.7893 2.96957 15 3.5 15H17.5C18.0304 15 18.5391 14.7893 18.9142 14.4142C19.2893 14.0391 19.5 13.5304 19.5 13V5M1.5 5V3C1.5 2.46957 1.71071 1.96086 2.08579 1.58579C2.46086 1.21071 2.96957 1 3.5 1H17.5C18.0304 1 18.5391 1.21071 18.9142 1.58579C19.2893 1.96086 19.5 2.46957 19.5 3V5M1.5 5H19.5M5.5 9H10.5" stroke="#E5E5E5" stroke-width="2" stroke-linecap="round" stroke-linejoin="round"/>
</g>
<defs>
<clipPath id="clip0_52_947">
<rect width="20" height="16" fill="white" transform="translate(0.5)"/>
</clipPath>
</defs>
</svg>
