<svg width="248" height="124" viewBox="0 0 248 124" fill="none" xmlns="http://www.w3.org/2000/svg">
<path d="M8.33523 35L0.613636 8.81818H8.53977L12.1193 24.9261H12.3239L16.5682 8.81818H22.8068L27.0511 24.9773H27.2557L30.8352 8.81818H38.7614L31.0398 35H24.2386L19.7898 20.375H19.5852L15.1364 35H8.33523ZM48.2216 23.9545V35H41.1648V8.81818H47.9659V19.0966H48.1705C48.6136 17.8437 49.3509 16.8679 50.3821 16.169C51.4134 15.4616 52.6534 15.108 54.1023 15.108C55.4915 15.108 56.6974 15.4233 57.7202 16.054C58.7514 16.6847 59.5483 17.554 60.1108 18.6619C60.6818 19.7699 60.9631 21.0398 60.9545 22.4716V35H53.8977V23.9545C53.9063 22.983 53.6634 22.2202 53.169 21.6662C52.6832 21.1122 51.9886 20.8352 51.0852 20.8352C50.5142 20.8352 50.0114 20.9631 49.5767 21.2188C49.1506 21.4659 48.8182 21.8239 48.5795 22.2926C48.3494 22.7528 48.2301 23.3068 48.2216 23.9545ZM68.0305 42.3636C67.2209 42.3636 66.4496 42.2997 65.7166 42.1719C64.9837 42.0526 64.3402 41.8864 63.7862 41.6733L65.3203 36.6619C65.8999 36.8665 66.4283 36.9986 66.9055 37.0582C67.3913 37.1179 67.8047 37.0838 68.1456 36.956C68.495 36.8281 68.7464 36.5852 68.8999 36.2273L69.0533 35.8693L62.1499 15.3636H69.5135L72.6839 28.9659H72.8885L76.1101 15.3636H83.5249L76.3658 36.6364C76.0078 37.7188 75.4879 38.6903 74.8061 39.5511C74.1328 40.4205 73.2464 41.1065 72.147 41.6094C71.0476 42.1122 69.6754 42.3636 68.0305 42.3636ZM26.1307 62.6364H18.9205C18.8693 62.0398 18.733 61.4986 18.5114 61.0128C18.2983 60.527 18 60.1094 17.6165 59.7599C17.2415 59.402 16.7855 59.1293 16.2486 58.9418C15.7116 58.7457 15.1023 58.6477 14.4205 58.6477C13.2273 58.6477 12.2173 58.9375 11.3906 59.517C10.5724 60.0966 9.95028 60.9276 9.52415 62.0099C9.10653 63.0923 8.89773 64.392 8.89773 65.9091C8.89773 67.5114 9.1108 68.8537 9.53693 69.9361C9.97159 71.0099 10.598 71.8196 11.4162 72.3651C12.2344 72.902 13.2188 73.1705 14.3693 73.1705C15.0256 73.1705 15.6136 73.0895 16.1335 72.9276C16.6534 72.7571 17.1051 72.5142 17.4886 72.1989C17.8722 71.8835 18.1832 71.5043 18.4219 71.0611C18.669 70.6094 18.8352 70.1023 18.9205 69.5398L26.1307 69.5909C26.0455 70.6989 25.7344 71.8281 25.1974 72.9787C24.6605 74.1207 23.8977 75.1776 22.9091 76.1491C21.929 77.1122 20.7145 77.8878 19.2656 78.4759C17.8168 79.0639 16.1335 79.358 14.2159 79.358C11.8125 79.358 9.65625 78.8423 7.74716 77.8111C5.84659 76.7798 4.34233 75.2628 3.23438 73.2599C2.13494 71.2571 1.58523 68.8068 1.58523 65.9091C1.58523 62.9943 2.14773 60.5398 3.27273 58.5455C4.39773 56.5426 5.91477 55.0298 7.82386 54.0071C9.73295 52.9759 11.8636 52.4602 14.2159 52.4602C15.8693 52.4602 17.3906 52.6861 18.7798 53.1378C20.169 53.5895 21.3878 54.25 22.4361 55.1193C23.4844 55.9801 24.3281 57.0412 24.9673 58.3026C25.6065 59.5639 25.9943 61.0085 26.1307 62.6364ZM36.5146 67.9545V79H29.4577V52.8182H36.2589V63.0966H36.4634C36.9066 61.8437 37.6438 60.8679 38.6751 60.169C39.7063 59.4616 40.9464 59.108 42.3952 59.108C43.7844 59.108 44.9904 59.4233 46.0131 60.054C47.0444 60.6847 47.8413 61.554 48.4038 62.6619C48.9748 63.7699 49.256 65.0398 49.2475 66.4716V79H42.1907V67.9545C42.1992 66.983 41.9563 66.2202 41.462 65.6662C40.9762 65.1122 40.2816 64.8352 39.3782 64.8352C38.8072 64.8352 38.3043 64.9631 37.8697 65.2188C37.4435 65.4659 37.1112 65.8239 36.8725 66.2926C36.6424 66.7528 36.5231 67.3068 36.5146 67.9545ZM62.1914 79.358C60.0607 79.358 58.2369 78.9361 56.7198 78.0923C55.2028 77.2401 54.0394 76.0554 53.2298 74.5384C52.4201 73.0128 52.0153 71.2443 52.0153 69.233C52.0153 67.2216 52.4201 65.4574 53.2298 63.9403C54.0394 62.4148 55.2028 61.2301 56.7198 60.3864C58.2369 59.5341 60.0607 59.108 62.1914 59.108C64.3221 59.108 66.146 59.5341 67.663 60.3864C69.18 61.2301 70.3434 62.4148 71.1531 63.9403C71.9627 65.4574 72.3675 67.2216 72.3675 69.233C72.3675 71.2443 71.9627 73.0128 71.1531 74.5384C70.3434 76.0554 69.18 77.2401 67.663 78.0923C66.146 78.9361 64.3221 79.358 62.1914 79.358ZM62.2425 74.142C62.8391 74.142 63.3548 73.9418 63.7894 73.5412C64.2241 73.1406 64.5607 72.5696 64.7994 71.8281C65.038 71.0866 65.1573 70.2045 65.1573 69.1818C65.1573 68.1506 65.038 67.2685 64.7994 66.5355C64.5607 65.794 64.2241 65.223 63.7894 64.8224C63.3548 64.4219 62.8391 64.2216 62.2425 64.2216C61.6119 64.2216 61.0707 64.4219 60.619 64.8224C60.1673 65.223 59.8221 65.794 59.5835 66.5355C59.3448 67.2685 59.2255 68.1506 59.2255 69.1818C59.2255 70.2045 59.3448 71.0866 59.5835 71.8281C59.8221 72.5696 60.1673 73.1406 60.619 73.5412C61.0707 73.9418 61.6119 74.142 62.2425 74.142ZM84.6914 79.358C82.5607 79.358 80.7369 78.9361 79.2198 78.0923C77.7028 77.2401 76.5394 76.0554 75.7298 74.5384C74.9201 73.0128 74.5153 71.2443 74.5153 69.233C74.5153 67.2216 74.9201 65.4574 75.7298 63.9403C76.5394 62.4148 77.7028 61.2301 79.2198 60.3864C80.7369 59.5341 82.5607 59.108 84.6914 59.108C86.8221 59.108 88.646 59.5341 90.163 60.3864C91.68 61.2301 92.8434 62.4148 93.6531 63.9403C94.4627 65.4574 94.8675 67.2216 94.8675 69.233C94.8675 71.2443 94.4627 73.0128 93.6531 74.5384C92.8434 76.0554 91.68 77.2401 90.163 78.0923C88.646 78.9361 86.8221 79.358 84.6914 79.358ZM84.7425 74.142C85.3391 74.142 85.8548 73.9418 86.2894 73.5412C86.7241 73.1406 87.0607 72.5696 87.2994 71.8281C87.538 71.0866 87.6573 70.2045 87.6573 69.1818C87.6573 68.1506 87.538 67.2685 87.2994 66.5355C87.0607 65.794 86.7241 65.223 86.2894 64.8224C85.8548 64.4219 85.3391 64.2216 84.7425 64.2216C84.1119 64.2216 83.5707 64.4219 83.119 64.8224C82.6673 65.223 82.3221 65.794 82.0835 66.5355C81.8448 67.2685 81.7255 68.1506 81.7255 69.1818C81.7255 70.2045 81.8448 71.0866 82.0835 71.8281C82.3221 72.5696 82.6673 73.1406 83.119 73.5412C83.5707 73.9418 84.1119 74.142 84.7425 74.142ZM115.68 65.7557H109.186C109.152 65.3551 109.011 65.0099 108.764 64.7202C108.517 64.4304 108.197 64.2088 107.805 64.0554C107.422 63.8935 106.995 63.8125 106.527 63.8125C105.922 63.8125 105.402 63.9233 104.967 64.1449C104.532 64.3665 104.319 64.6818 104.328 65.0909C104.319 65.3807 104.443 65.6491 104.699 65.8963C104.963 66.1435 105.47 66.3352 106.22 66.4716L110.208 67.1875C112.22 67.554 113.716 68.1719 114.696 69.0412C115.684 69.902 116.183 71.0568 116.191 72.5057C116.183 73.9034 115.765 75.1179 114.939 76.1491C114.12 77.1719 113 77.9645 111.576 78.527C110.162 79.081 108.547 79.358 106.731 79.358C103.731 79.358 101.383 78.7443 99.6871 77.517C97.9996 76.2898 97.0579 74.6705 96.8619 72.6591H103.868C103.961 73.2812 104.268 73.7628 104.788 74.1037C105.316 74.4361 105.981 74.6023 106.782 74.6023C107.43 74.6023 107.963 74.4915 108.38 74.2699C108.806 74.0483 109.024 73.733 109.032 73.3239C109.024 72.9489 108.836 72.6506 108.47 72.429C108.112 72.2074 107.549 72.0284 106.782 71.892L103.305 71.2784C101.302 70.929 99.8022 70.2642 98.805 69.2841C97.8079 68.304 97.3136 67.0426 97.3221 65.5C97.3136 64.1364 97.6715 62.9815 98.396 62.0355C99.1289 61.081 100.173 60.3565 101.528 59.8622C102.892 59.3594 104.507 59.108 106.373 59.108C109.211 59.108 111.449 59.696 113.085 60.8722C114.73 62.0483 115.595 63.6761 115.68 65.7557ZM128.304 79.358C126.208 79.358 124.401 78.9574 122.884 78.1562C121.375 77.3466 120.212 76.1875 119.394 74.679C118.584 73.1619 118.179 71.3466 118.179 69.233C118.179 67.2045 118.588 65.4318 119.407 63.9148C120.225 62.3977 121.38 61.2173 122.871 60.3736C124.363 59.5298 126.123 59.108 128.151 59.108C129.634 59.108 130.976 59.3381 132.178 59.7983C133.38 60.2585 134.407 60.9276 135.259 61.8054C136.111 62.6747 136.767 63.7315 137.228 64.9759C137.688 66.2202 137.918 67.6222 137.918 69.1818V70.8182H120.378V66.9318H131.424C131.415 66.3693 131.27 65.875 130.989 65.4489C130.716 65.0142 130.346 64.6776 129.877 64.4389C129.417 64.1918 128.892 64.0682 128.304 64.0682C127.733 64.0682 127.209 64.1918 126.732 64.4389C126.255 64.6776 125.871 65.0099 125.581 65.4361C125.3 65.8622 125.151 66.3608 125.134 66.9318V71.125C125.134 71.7557 125.266 72.3182 125.53 72.8125C125.794 73.3068 126.174 73.6946 126.668 73.9759C127.162 74.2571 127.759 74.3977 128.458 74.3977C128.944 74.3977 129.387 74.3295 129.787 74.1932C130.196 74.0568 130.546 73.8608 130.836 73.6051C131.125 73.3409 131.338 73.0256 131.475 72.6591H137.918C137.696 74.0227 137.172 75.2074 136.346 76.2131C135.519 77.2102 134.424 77.9858 133.06 78.5398C131.705 79.0852 130.12 79.358 128.304 79.358ZM17.1818 96.8182H24.2898V113.591C24.2898 115.585 23.8125 117.311 22.858 118.768C21.9119 120.217 20.5909 121.338 18.8949 122.131C17.1989 122.915 15.2301 123.307 12.9886 123.307C10.7301 123.307 8.75284 122.915 7.05682 122.131C5.3608 121.338 4.03977 120.217 3.09375 118.768C2.15625 117.311 1.6875 115.585 1.6875 113.591V96.8182H8.79545V112.977C8.79545 113.787 8.97443 114.511 9.33239 115.151C9.69034 115.781 10.1847 116.276 10.8153 116.634C11.4545 116.991 12.179 117.17 12.9886 117.17C13.8068 117.17 14.5313 116.991 15.1619 116.634C15.7926 116.276 16.2869 115.781 16.6449 115.151C17.0028 114.511 17.1818 113.787 17.1818 112.977V96.8182ZM45.7191 109.756H39.2248C39.1907 109.355 39.0501 109.01 38.8029 108.72C38.5558 108.43 38.2362 108.209 37.8441 108.055C37.4606 107.893 37.0344 107.812 36.5657 107.812C35.9606 107.812 35.4407 107.923 35.006 108.145C34.5714 108.366 34.3583 108.682 34.3668 109.091C34.3583 109.381 34.4819 109.649 34.7376 109.896C35.0018 110.143 35.5089 110.335 36.2589 110.472L40.2475 111.188C42.2589 111.554 43.7546 112.172 44.7347 113.041C45.7234 113.902 46.2219 115.057 46.2305 116.506C46.2219 117.903 45.8043 119.118 44.9776 120.149C44.1594 121.172 43.0387 121.964 41.6154 122.527C40.2006 123.081 38.5856 123.358 36.7702 123.358C33.7702 123.358 31.4222 122.744 29.7262 121.517C28.0387 120.29 27.0969 118.67 26.9009 116.659H33.9066C34.0004 117.281 34.3072 117.763 34.8271 118.104C35.3555 118.436 36.0202 118.602 36.8214 118.602C37.4691 118.602 38.0018 118.491 38.4194 118.27C38.8455 118.048 39.0629 117.733 39.0714 117.324C39.0629 116.949 38.8754 116.651 38.5089 116.429C38.1509 116.207 37.5884 116.028 36.8214 115.892L33.3441 115.278C31.3413 114.929 29.8413 114.264 28.8441 113.284C27.8469 112.304 27.3526 111.043 27.3612 109.5C27.3526 108.136 27.7106 106.982 28.435 106.036C29.168 105.081 30.212 104.357 31.5671 103.862C32.9308 103.359 34.5458 103.108 36.4123 103.108C39.2504 103.108 41.4876 103.696 43.1239 104.872C44.7688 106.048 45.6339 107.676 45.7191 109.756ZM54.0991 114.818V114.205C54.0991 112.798 54.2099 111.678 54.4315 110.842C54.6531 110.007 54.9812 109.338 55.4158 108.835C55.8505 108.324 56.3832 107.864 57.0139 107.455C57.5593 107.097 58.0451 106.751 58.4712 106.419C58.9059 106.087 59.2468 105.733 59.494 105.358C59.7496 104.983 59.8775 104.557 59.8775 104.08C59.8775 103.653 59.7752 103.278 59.5707 102.955C59.3661 102.631 59.0891 102.379 58.7397 102.2C58.3903 102.021 58.0025 101.932 57.5764 101.932C57.1161 101.932 56.69 102.038 56.2979 102.251C55.9144 102.464 55.6033 102.759 55.3647 103.134C55.1346 103.509 55.0195 103.943 55.0195 104.438H48.4741C48.4911 102.562 48.9173 101.041 49.7525 99.8736C50.5877 98.6974 51.6957 97.8366 53.0763 97.2912C54.457 96.7372 55.9741 96.4602 57.6275 96.4602C59.4513 96.4602 61.0792 96.7287 62.511 97.2656C63.9428 97.794 65.0721 98.5952 65.8988 99.669C66.7255 100.734 67.1389 102.068 67.1389 103.67C67.1389 104.702 66.9599 105.609 66.6019 106.393C66.2525 107.169 65.7624 107.855 65.1317 108.452C64.5096 109.04 63.7809 109.577 62.9457 110.062C62.332 110.42 61.8164 110.791 61.3988 111.175C60.9812 111.55 60.6658 111.98 60.4528 112.466C60.2397 112.943 60.1332 113.523 60.1332 114.205V114.818H54.0991ZM57.2184 123.409C56.2298 123.409 55.3817 123.064 54.6744 122.374C53.9755 121.675 53.6303 120.827 53.6388 119.83C53.6303 118.858 53.9755 118.027 54.6744 117.337C55.3817 116.646 56.2298 116.301 57.2184 116.301C58.1559 116.301 58.9826 116.646 59.6985 117.337C60.4229 118.027 60.7894 118.858 60.7979 119.83C60.7894 120.494 60.6147 121.099 60.2738 121.645C59.9414 122.182 59.5067 122.612 58.9698 122.936C58.4329 123.251 57.8491 123.409 57.2184 123.409Z" fill="#5E5454"/>
<g clip-path="url(#clip0_52_221)">
<path d="M224 25C237.255 25 248 35.6722 248 48.8379C248 62.0036 237.255 72.6758 224 72.6758C210.745 72.6758 200 62.0036 200 48.8379C200 35.6722 210.745 25 224 25ZM224 29.7676C218.908 29.7676 214.024 31.7768 210.424 35.3531C206.823 38.9295 204.8 43.7801 204.8 48.8379C204.8 53.8957 206.823 58.7463 210.424 62.3227C214.024 65.899 218.908 67.9082 224 67.9082C229.092 67.9082 233.976 65.899 237.576 62.3227C241.177 58.7463 243.2 53.8957 243.2 48.8379C243.2 43.7801 241.177 38.9295 237.576 35.3531C233.976 31.7768 229.092 29.7676 224 29.7676ZM224 58.3731C224.637 58.3731 225.247 58.6242 225.697 59.0713C226.147 59.5183 226.4 60.1246 226.4 60.7569C226.4 61.3891 226.147 61.9954 225.697 62.4425C225.247 62.8895 224.637 63.1406 224 63.1406C223.363 63.1406 222.753 62.8895 222.303 62.4425C221.853 61.9954 221.6 61.3891 221.6 60.7569C221.6 60.1246 221.853 59.5183 222.303 59.0713C222.753 58.6242 223.363 58.3731 224 58.3731ZM224 35.7271C226.021 35.7271 227.98 36.4264 229.539 37.7047C231.098 38.9829 232.16 40.7605 232.542 42.732C232.925 44.7035 232.605 46.7459 231.636 48.5083C230.668 50.2706 229.112 51.6431 227.235 52.3898C226.957 52.4913 226.707 52.6552 226.503 52.8689C226.398 52.9881 226.381 53.1406 226.383 53.298L226.4 53.6055C226.399 54.2131 226.165 54.7975 225.745 55.2393C225.325 55.6811 224.751 55.9469 224.141 55.9825C223.53 56.0181 222.929 55.8208 222.46 55.4308C221.991 55.0409 221.689 54.4877 221.617 53.8844L221.6 53.6055V53.0095C221.6 50.261 223.832 48.6114 225.45 47.9654C226.108 47.7043 226.682 47.27 227.111 46.7091C227.539 46.1483 227.806 45.4821 227.882 44.782C227.958 44.082 227.841 43.3746 227.543 42.7357C227.245 42.0969 226.777 41.5508 226.19 41.1561C225.603 40.7614 224.919 40.5329 224.211 40.4953C223.503 40.4576 222.798 40.6122 222.172 40.9425C221.546 41.2727 221.022 41.7661 220.657 42.3697C220.292 42.9732 220.1 43.6642 220.1 44.3683C220.1 45.0005 219.847 45.6068 219.397 46.0539C218.947 46.5009 218.337 46.7521 217.7 46.7521C217.063 46.7521 216.453 46.5009 216.003 46.0539C215.553 45.6068 215.3 45.0005 215.3 44.3683C215.3 42.0765 216.217 39.8786 217.848 38.258C219.48 36.6375 221.693 35.7271 224 35.7271Z" fill="#5E5454"/>
</g>
<defs>
<clipPath id="clip0_52_221">
<rect width="48" height="52" fill="white" transform="translate(200 25)"/>
</clipPath>
</defs>
</svg>
