<svg width="48" height="52" viewBox="0 0 48 52" fill="none" xmlns="http://www.w3.org/2000/svg">
<g clip-path="url(#clip0_52_227)">
<path d="M24 0C37.2552 0 48 10.6722 48 23.8379C48 37.0036 37.2552 47.6758 24 47.6758C10.7448 47.6758 0 37.0036 0 23.8379C0 10.6722 10.7448 0 24 0ZM24 4.76758C18.9078 4.76758 14.0242 6.77677 10.4236 10.3531C6.82285 13.9295 4.8 18.7801 4.8 23.8379C4.8 28.8957 6.82285 33.7463 10.4236 37.3227C14.0242 40.899 18.9078 42.9082 24 42.9082C29.0922 42.9082 33.9758 40.899 37.5765 37.3227C41.1772 33.7463 43.2 28.8957 43.2 23.8379C43.2 18.7801 41.1772 13.9295 37.5765 10.3531C33.9758 6.77677 29.0922 4.76758 24 4.76758ZM24 33.3731C24.6365 33.3731 25.247 33.6242 25.6971 34.0713C26.1471 34.5183 26.4 35.1246 26.4 35.7569C26.4 36.3891 26.1471 36.9954 25.6971 37.4425C25.247 37.8895 24.6365 38.1406 24 38.1406C23.3635 38.1406 22.753 37.8895 22.3029 37.4425C21.8529 36.9954 21.6 36.3891 21.6 35.7569C21.6 35.1246 21.8529 34.5183 22.3029 34.0713C22.753 33.6242 23.3635 33.3731 24 33.3731ZM24 10.7271C26.0215 10.7271 27.9798 11.4264 29.5387 12.7047C31.0975 13.9829 32.1596 15.7605 32.5423 17.732C32.9251 19.7035 32.6048 21.7459 31.6363 23.5083C30.6678 25.2706 29.1117 26.6431 27.2352 27.3898C26.9573 27.4913 26.7067 27.6552 26.5032 27.8689C26.3976 27.9881 26.3808 28.1406 26.3832 28.298L26.4 28.6055C26.3993 29.2131 26.1651 29.7975 25.7452 30.2393C25.3252 30.6811 24.7513 30.9469 24.1407 30.9825C23.53 31.0181 22.9287 30.8208 22.4596 30.4308C21.9905 30.0409 21.689 29.4877 21.6168 28.8844L21.6 28.6055V28.0095C21.6 25.261 23.832 23.6114 25.4496 22.9654C26.108 22.7043 26.6823 22.27 27.1108 21.7091C27.5394 21.1483 27.8061 20.4821 27.8822 19.782C27.9584 19.082 27.8411 18.3746 27.5429 17.7357C27.2448 17.0969 26.7771 16.5508 26.1901 16.1561C25.6031 15.7614 24.9189 15.5329 24.211 15.4953C23.5031 15.4576 22.7982 15.6122 22.1721 15.9425C21.546 16.2727 21.0223 16.7661 20.6573 17.3697C20.2922 17.9732 20.0995 18.6642 20.1 19.3683C20.1 20.0005 19.8471 20.6068 19.3971 21.0539C18.947 21.5009 18.3365 21.7521 17.7 21.7521C17.0635 21.7521 16.453 21.5009 16.0029 21.0539C15.5529 20.6068 15.3 20.0005 15.3 19.3683C15.3 17.0765 16.2166 14.8786 17.8482 13.258C19.4797 11.6375 21.6926 10.7271 24 10.7271Z" fill="#5E5454"/>
</g>
<defs>
<clipPath id="clip0_52_227">
<rect width="48" height="52" fill="white"/>
</clipPath>
</defs>
</svg>
