<svg width="40" height="49" viewBox="0 0 40 49" fill="none" xmlns="http://www.w3.org/2000/svg">
<g clip-path="url(#clip0_52_451)">
<path fill-rule="evenodd" clip-rule="evenodd" d="M20 0.5C25.3043 0.5 30.3914 2.58647 34.1421 6.3004C37.8929 10.0143 40 15.0515 40 20.3038C40 27.0679 36.2756 32.6042 32.3511 36.5759C30.3904 38.5388 28.2509 40.3184 25.96 41.8921L25.0133 42.5303L24.5689 42.8229L23.7311 43.351L22.9844 43.8021L22.06 44.3346C21.4325 44.6892 20.7225 44.8758 20 44.8758C19.2775 44.8758 18.5675 44.6892 17.94 44.3346L17.0156 43.8021L15.86 43.098L15.4333 42.8229L14.5222 42.2222C12.0507 40.5664 9.74867 38.6753 7.64889 36.5759C3.72444 32.602 0 27.0679 0 20.3038C0 15.0515 2.10714 10.0143 5.85786 6.3004C9.60859 2.58647 14.6957 0.5 20 0.5ZM20 4.90084C15.8744 4.90084 11.9178 6.52365 9.00056 9.41226C6.08333 12.3009 4.44444 16.2187 4.44444 20.3038C4.44444 25.4132 7.27111 29.8976 10.8244 33.4975C12.3523 35.029 14.0037 36.4346 15.7622 37.7003L16.78 38.4177C17.1089 38.645 17.4252 38.8563 17.7289 39.0514L18.5956 39.6015L19.3578 40.0614L20 40.4333L21.0111 39.8413L21.8267 39.3352C22.2607 39.0624 22.7252 38.7565 23.22 38.4177L24.2378 37.7003C25.9963 36.4346 27.6477 35.029 29.1756 33.4975C32.7289 29.8998 35.5556 25.4132 35.5556 20.3038C35.5556 16.2187 33.9167 12.3009 30.9994 9.41226C28.0822 6.52365 24.1256 4.90084 20 4.90084ZM20 11.5021C22.3575 11.5021 24.6184 12.4294 26.2854 14.0801C27.9524 15.7307 28.8889 17.9694 28.8889 20.3038C28.8889 22.6381 27.9524 24.8769 26.2854 26.5275C24.6184 28.1782 22.3575 29.1055 20 29.1055C17.6425 29.1055 15.3816 28.1782 13.7146 26.5275C12.0476 24.8769 11.1111 22.6381 11.1111 20.3038C11.1111 17.9694 12.0476 15.7307 13.7146 14.0801C15.3816 12.4294 17.6425 11.5021 20 11.5021ZM20 15.903C18.8213 15.903 17.6908 16.3666 16.8573 17.1919C16.0238 18.0172 15.5556 19.1366 15.5556 20.3038C15.5556 21.471 16.0238 22.5903 16.8573 23.4157C17.6908 24.241 18.8213 24.7046 20 24.7046C21.1787 24.7046 22.3092 24.241 23.1427 23.4157C23.9762 22.5903 24.4444 21.471 24.4444 20.3038C24.4444 19.1366 23.9762 18.0172 23.1427 17.1919C22.3092 16.3666 21.1787 15.903 20 15.903Z" fill="#5E5454"/>
</g>
<defs>
<clipPath id="clip0_52_451">
<rect width="40" height="48" fill="white" transform="translate(0 0.5)"/>
</clipPath>
</defs>
</svg>
