<svg width="17" height="20" viewBox="0 0 17 20" fill="none" xmlns="http://www.w3.org/2000/svg">
<g clip-path="url(#clip0_52_954)">
<path fill-rule="evenodd" clip-rule="evenodd" d="M4.92263 0C4.24698 1.24375e-05 3.59357 0.235975 3.08027 0.665323C2.56697 1.09467 2.22757 1.68914 2.1233 2.3415L0.18152 14.4809C0.139232 14.7443 0.155833 15.0135 0.23018 15.2701C0.304527 15.5266 0.434857 15.7643 0.612202 15.9669C0.789547 16.1695 1.0097 16.3322 1.25751 16.4437C1.50532 16.5552 1.77492 16.6129 2.04774 16.6129H3.64385C3.64385 17.1025 3.84286 17.572 4.1971 17.9181C4.55133 18.2643 5.03178 18.4588 5.53274 18.4588H7.39896C7.84935 18.4588 8.28492 18.3015 8.62711 18.0154C8.96931 17.7292 9.1956 17.3329 9.26519 16.8981L9.75346 13.8441H11.1257C12.4148 13.8441 13.6654 13.4146 14.6711 12.6265C15.6768 11.8384 16.3774 10.7387 16.6574 9.50905L16.7027 9.30784C16.9303 8.31043 16.8126 7.26741 16.3682 6.34238C15.9238 5.41734 15.1778 4.66263 14.2471 4.19661C13.7683 1.85603 11.6584 0 9.01019 0H4.92074H4.92263ZM6.41863 11.0753H8.15924C9.54369 11.0749 10.8884 10.6228 11.98 9.79064C13.0715 8.95849 13.8475 7.79396 14.1848 6.4818L14.1942 6.44858C14.4987 6.77626 14.7181 7.1707 14.8338 7.59863C14.9495 8.02655 14.9582 8.47539 14.8591 8.90729L14.8129 9.10757C14.6264 9.92737 14.1594 10.6605 13.4891 11.1861C12.8188 11.7116 11.9851 11.9981 11.1257 11.9982H9.75346C9.30307 11.9982 8.86751 12.1555 8.52532 12.4416C8.18312 12.7278 7.95683 13.1241 7.88724 13.5589L7.39896 16.6129H5.53274L6.41863 11.0753Z" fill="#E5E5E5"/>
</g>
<defs>
<clipPath id="clip0_52_954">
<rect width="17" height="20" fill="white"/>
</clipPath>
</defs>
</svg>
