<svg width="47" height="47" viewBox="0 0 47 47" fill="none" xmlns="http://www.w3.org/2000/svg">
<g clip-path="url(#clip0_46_354)">
<path d="M45.2036 10.6493H35.9782C35.8831 10.6493 35.789 10.6305 35.7012 10.594C35.6134 10.5575 35.5337 10.5041 35.4666 10.4367C35.3996 10.3693 35.3465 10.2893 35.3104 10.2014C35.2743 10.1134 35.256 10.0192 35.2564 9.92413C35.2574 9.74917 35.3204 9.58023 35.4343 9.44742L42.0143 1.92742C42.0781 1.85285 42.1575 1.79317 42.2468 1.75257C42.3361 1.71196 42.4332 1.69143 42.5313 1.69242C42.9073 1.69242 43.2128 2.00127 43.2128 2.37727V13.6338M29.7104 13.6304H21.754V11.9351C21.7548 11.355 21.9244 10.7878 22.2422 10.3025C22.5599 9.81728 23.012 9.43501 23.5433 9.20234L27.9748 7.26527C28.588 6.99829 29.0904 6.52805 29.3973 5.93383C29.7042 5.33961 29.7968 4.65775 29.6596 4.00318C29.5224 3.34861 29.1637 2.76137 28.644 2.34044C28.1242 1.91952 27.4753 1.69065 26.8065 1.69242H24.7385C24.1214 1.6931 23.5196 1.88484 23.0159 2.24131C22.5121 2.59777 22.1311 3.10147 21.9252 3.6832M25.1984 43.8615C26.9388 44.9821 29.0102 45.4733 31.0684 45.2534C33.1267 45.0336 35.0476 44.1159 36.512 42.6529L37.7877 41.3772C38.3535 40.8052 38.6709 40.0332 38.6709 39.2286C38.6709 38.4241 38.3535 37.652 37.7877 37.0801L32.4163 31.7422C31.85 31.1784 31.0835 30.8619 30.2845 30.8619C29.4854 30.8619 28.7189 31.1784 28.1527 31.7422C27.5807 32.308 26.8087 32.6254 26.0041 32.6254C25.1996 32.6254 24.4275 32.308 23.8556 31.7422L15.2948 23.1815C14.729 22.6095 14.4116 21.8375 14.4116 21.0329C14.4116 20.2284 14.729 19.4563 15.2948 18.8843C15.8586 18.3181 16.1751 17.5516 16.1751 16.7526C16.1751 15.9535 15.8586 15.187 15.2948 14.6208L10.1248 9.24935C9.55289 8.68351 8.78082 8.36613 7.97627 8.36613C7.17172 8.36613 6.39965 8.68351 5.8277 9.24935L4.55199 10.5251C3.06278 11.9688 2.11373 13.8795 1.86324 15.9385C1.61274 17.9974 2.07595 20.08 3.17556 21.8386C9.02754 30.5312 16.5059 38.0095 25.1984 43.8615Z" stroke="#5E5454" stroke-width="3.35714" stroke-linecap="round" stroke-linejoin="round"/>
</g>
<defs>
<clipPath id="clip0_46_354">
<rect width="47" height="47" fill="white"/>
</clipPath>
</defs>
</svg>
