<svg width="39" height="47" viewBox="0 0 39 47" fill="none" xmlns="http://www.w3.org/2000/svg">
<g clip-path="url(#clip0_46_348)">
<path d="M19.5003 0.861328L39.0837 7.71549V23.4997C39.0837 31.5817 34.1232 37.2315 29.4957 40.7389C26.7042 42.8372 23.6408 44.5467 20.3894 45.8207L20.219 45.8854L20.1701 45.903L20.1564 45.9069L20.1505 45.9089C20.1485 45.9089 20.1466 45.9089 19.5003 44.0622L18.8521 45.9108L18.8443 45.9069L18.8306 45.903L18.7816 45.8834L18.6112 45.8207C17.6876 45.4636 16.7794 45.0676 15.8892 44.634C13.6417 43.5422 11.5039 42.2379 9.50499 40.7389C4.87941 37.2315 -0.0830078 31.5817 -0.0830078 23.4997V7.71549L19.5003 0.861328ZM19.5003 44.0622L18.8521 45.9108L19.5003 46.138L20.1485 45.9108L19.5003 44.0622ZM19.5003 41.9628L19.518 41.955C22.2276 40.835 24.7852 39.3776 27.13 37.6173C31.3169 34.4467 35.167 29.8114 35.167 23.4997V10.4963L19.5003 5.01299L3.83366 10.4963V23.4997C3.83366 29.8114 7.68374 34.4428 11.8707 37.6192C14.2207 39.3829 16.7842 40.8423 19.5003 41.9628ZM31.3913 16.338L17.544 30.1854L9.23474 21.8782L12.0058 19.1071L17.542 24.6472L28.6203 13.569L31.3913 16.338Z" fill="#5E5454"/>
</g>
<defs>
<clipPath id="clip0_46_348">
<rect width="39.1667" height="47" fill="white" transform="translate(-0.0830078)"/>
</clipPath>
</defs>
</svg>
